<?xml version="1.0" encoding="UTF-8"?>
<svg xmlns="http://www.w3.org/2000/svg" xmlns:xlink="http://www.w3.org/1999/xlink" width="40px" height="40px" viewBox="0 0 40 40" version="1.1">
<defs>
<clipPath id="clip1">
  <path d="M 5 6 L 36 6 L 36 39 L 5 39 Z M 5 6 "/>
</clipPath>
<clipPath id="clip2">
  <path d="M 5.949219 39.996094 L 4.054688 14.171875 L 34.050781 0.00390625 L 35.945312 25.828125 Z M 5.949219 39.996094 "/>
</clipPath>
</defs>
<g id="surface1">
<g clip-path="url(#clip1)" clip-rule="nonzero">
<g clip-path="url(#clip2)" clip-rule="nonzero">
<path style=" stroke:none;fill-rule:nonzero;fill:rgb(100%,0%,0%);fill-opacity:1;" d="M 10.085938 34.703125 C 9.742188 34.863281 9.441406 34.757812 9.421875 34.457031 L 9.261719 32.308594 C 9.242188 32.011719 9.503906 31.636719 9.847656 31.472656 L 12.347656 30.292969 C 12.695312 30.128906 12.992188 30.238281 13.011719 30.535156 L 13.171875 32.6875 C 13.191406 32.984375 12.929688 33.359375 12.585938 33.519531 L 10.085938 34.699219 M 28.835938 25.847656 C 28.492188 26.007812 28.191406 25.902344 28.171875 25.605469 L 28.011719 23.453125 C 27.992188 23.15625 28.253906 22.78125 28.597656 22.617188 L 31.097656 21.4375 C 31.445312 21.273438 31.742188 21.382812 31.761719 21.679688 L 31.921875 23.832031 C 31.941406 24.128906 31.679688 24.503906 31.335938 24.664062 L 28.835938 25.847656 M 19.527344 13.546875 C 18.488281 14.035156 17.597656 13.707031 17.53125 12.816406 C 17.46875 11.925781 18.253906 10.808594 19.289062 10.316406 C 20.324219 9.828125 21.21875 10.15625 21.28125 11.046875 C 21.347656 11.9375 20.5625 13.054688 19.527344 13.546875 M 19.058594 7.085938 C 18.710938 7.25 18.363281 7.441406 18.015625 7.664062 C 15.765625 9.109375 14.097656 11.480469 13.8125 13.640625 C 10.40625 17.027344 8.457031 21.28125 8.710938 24.777344 L 8.988281 28.578125 C 6.855469 29.863281 5.375 32.207031 5.511719 34.078125 L 5.671875 36.230469 C 5.824219 38.308594 7.90625 39.070312 10.320312 37.929688 L 12.820312 36.746094 C 15.238281 35.605469 17.074219 32.996094 16.917969 30.914062 L 16.761719 28.765625 C 16.625 26.890625 14.910156 26.058594 12.738281 26.808594 L 12.460938 23.003906 C 12.316406 21.078125 13.183594 18.78125 14.820312 16.742188 C 15.996094 17.710938 17.890625 17.652344 19.765625 16.765625 C 20.78125 16.285156 21.792969 15.566406 22.683594 14.632812 C 23.382812 13.894531 23.960938 13.074219 24.367188 12.234375 C 26.183594 12.640625 27.316406 13.996094 27.460938 15.917969 L 27.738281 19.722656 C 25.605469 21.007812 24.125 23.351562 24.261719 25.222656 L 24.417969 27.375 C 24.574219 29.453125 26.65625 30.214844 29.070312 29.074219 L 31.570312 27.890625 C 33.988281 26.75 35.824219 24.140625 35.667969 22.058594 L 35.511719 19.910156 C 35.375 18.035156 33.660156 17.203125 31.488281 17.953125 L 31.210938 14.148438 C 30.949219 10.65625 28.527344 8.46875 24.867188 8.421875 C 24.1875 6.335938 21.707031 5.832031 19.058594 7.082031 "/>
</g>
</g>
</g>
</svg>
