<svg width="48" height="48" viewBox="0 0 48 48" fill="none" xmlns="http://www.w3.org/2000/svg">
<g clip-path="url(#clip0_35_1464)">
<rect width="48" height="48" fill="#151A26"/>
<path d="M26.124 21.6637C26.7105 21.6637 27.1859 21.1882 27.1859 20.6017C27.1859 20.0152 26.7105 19.5398 26.124 19.5398C25.5375 19.5398 25.062 20.0152 25.062 20.6017C25.062 21.1882 25.5375 21.6637 26.124 21.6637Z" fill="#1AE19D"/>
<path d="M22.0884 21.6637C22.6749 21.6637 23.1504 21.1882 23.1504 20.6017C23.1504 20.0152 22.6749 19.5398 22.0884 19.5398C21.5019 19.5398 21.0265 20.0152 21.0265 20.6017C21.0265 21.1882 21.5019 21.6637 22.0884 21.6637Z" fill="#1AE19D"/>
<path d="M20.3893 18.4779C20.9758 18.4779 21.4513 18.0024 21.4513 17.416C21.4513 16.8295 20.9758 16.354 20.3893 16.354C19.8028 16.354 19.3274 16.8295 19.3274 17.416C19.3274 18.0024 19.8028 18.4779 20.3893 18.4779Z" fill="#1AE19D"/>
<path d="M24.0001 17.4159C24.5866 17.4159 25.062 16.9405 25.062 16.354C25.062 15.7675 24.5866 15.2921 24.0001 15.2921C23.4136 15.2921 22.9381 15.7675 22.9381 16.354C22.9381 16.9405 23.4136 17.4159 24.0001 17.4159Z" fill="#1AE19D"/>
<path d="M28.0353 18.4779C28.6218 18.4779 29.0973 18.0024 29.0973 17.416C29.0973 16.8295 28.6218 16.354 28.0353 16.354C27.4488 16.354 26.9734 16.8295 26.9734 17.416C26.9734 18.0024 27.4488 18.4779 28.0353 18.4779Z" fill="#1AE19D"/>
<path d="M30.7966 15.7168C31.3831 15.7168 31.8585 15.2413 31.8585 14.6548C31.8585 14.0683 31.3831 13.5929 30.7966 13.5929C30.2101 13.5929 29.7346 14.0683 29.7346 14.6548C29.7346 15.2413 30.2101 15.7168 30.7966 15.7168Z" fill="#1AE19D"/>
<path d="M35.0444 14.0177C35.6309 14.0177 36.1063 13.5422 36.1063 12.9557C36.1063 12.3692 35.6309 11.8938 35.0444 11.8938C34.4579 11.8938 33.9824 12.3692 33.9824 12.9557C33.9824 13.5422 34.4579 14.0177 35.0444 14.0177Z" fill="#1AE19D"/>
<path d="M37.5928 11.469C38.1793 11.469 38.6548 10.9936 38.6548 10.4071C38.6548 9.8206 38.1793 9.34515 37.5928 9.34515C37.0063 9.34515 36.5309 9.8206 36.5309 10.4071C36.5309 10.9936 37.0063 11.469 37.5928 11.469Z" fill="#1AE19D"/>
<path d="M41.8406 10.1947C42.4271 10.1947 42.9026 9.71925 42.9026 9.13275C42.9026 8.54625 42.4271 8.0708 41.8406 8.0708C41.2541 8.0708 40.7787 8.54625 40.7787 9.13275C40.7787 9.71925 41.2541 10.1947 41.8406 10.1947Z" fill="#1AE19D"/>
<path d="M38.8672 7.43365C39.4537 7.43365 39.9292 6.9582 39.9292 6.3717C39.9292 5.7852 39.4537 5.30975 38.8672 5.30975C38.2808 5.30975 37.8053 5.7852 37.8053 6.3717C37.8053 6.9582 38.2808 7.43365 38.8672 7.43365Z" fill="#1AE19D"/>
<path d="M34.832 9.13275C35.4185 9.13275 35.8939 8.65729 35.8939 8.0708C35.8939 7.4843 35.4185 7.00885 34.832 7.00885C34.2455 7.00885 33.77 7.4843 33.77 8.0708C33.77 8.65729 34.2455 9.13275 34.832 9.13275Z" fill="#1AE19D"/>
<path d="M35.6816 5.09734C36.2681 5.09734 36.7435 4.62189 36.7435 4.0354C36.7435 3.4489 36.2681 2.97345 35.6816 2.97345C35.0951 2.97345 34.6196 3.4489 34.6196 4.0354C34.6196 4.62189 35.0951 5.09734 35.6816 5.09734Z" fill="#1AE19D"/>
<path d="M31.6459 11.6814C32.2324 11.6814 32.7079 11.2059 32.7079 10.6194C32.7079 10.0329 32.2324 9.5575 31.6459 9.5575C31.0594 9.5575 30.584 10.0329 30.584 10.6194C30.584 11.2059 31.0594 11.6814 31.6459 11.6814Z" fill="#1AE19D"/>
<path d="M27.8229 14.0177C28.4094 14.0177 28.8849 13.5422 28.8849 12.9557C28.8849 12.3692 28.4094 11.8938 27.8229 11.8938C27.2364 11.8938 26.761 12.3692 26.761 12.9557C26.761 13.5422 27.2364 14.0177 27.8229 14.0177Z" fill="#1AE19D"/>
<path d="M28.0353 10.1947C28.6218 10.1947 29.0973 9.71925 29.0973 9.13275C29.0973 8.54625 28.6218 8.0708 28.0353 8.0708C27.4488 8.0708 26.9734 8.54625 26.9734 9.13275C26.9734 9.71925 27.4488 10.1947 28.0353 10.1947Z" fill="#1AE19D"/>
<path d="M28.0353 6.15929C28.6218 6.15929 29.0973 5.68384 29.0973 5.09735C29.0973 4.51085 28.6218 4.0354 28.0353 4.0354C27.4488 4.0354 26.9734 4.51085 26.9734 5.09735C26.9734 5.68384 27.4488 6.15929 28.0353 6.15929Z" fill="#1AE19D"/>
<path d="M31.4335 7.22125C32.02 7.22125 32.4955 6.7458 32.4955 6.1593C32.4955 5.5728 32.02 5.09735 31.4335 5.09735C30.847 5.09735 30.3716 5.5728 30.3716 6.1593C30.3716 6.7458 30.847 7.22125 31.4335 7.22125Z" fill="#1AE19D"/>
<path d="M32.0707 3.39825C32.6572 3.39825 33.1327 2.9228 33.1327 2.3363C33.1327 1.7498 32.6572 1.27435 32.0707 1.27435C31.4842 1.27435 31.0088 1.7498 31.0088 2.3363C31.0088 2.9228 31.4842 3.39825 32.0707 3.39825Z" fill="#1AE19D"/>
<path d="M28.2477 2.3363C28.8342 2.3363 29.3097 1.86085 29.3097 1.27435C29.3097 0.687852 28.8342 0.212402 28.2477 0.212402C27.6612 0.212402 27.1858 0.687852 27.1858 1.27435C27.1858 1.86085 27.6612 2.3363 28.2477 2.3363Z" fill="#1AE19D"/>
<path d="M24.0001 2.12389C24.5866 2.12389 25.062 1.64844 25.062 1.06195C25.062 0.47545 24.5866 0 24.0001 0C23.4136 0 22.9381 0.47545 22.9381 1.06195C22.9381 1.64844 23.4136 2.12389 24.0001 2.12389Z" fill="#1AE19D"/>
<path d="M20.1769 2.3363C20.7634 2.3363 21.2389 1.86085 21.2389 1.27435C21.2389 0.687852 20.7634 0.212402 20.1769 0.212402C19.5904 0.212402 19.115 0.687852 19.115 1.27435C19.115 1.86085 19.5904 2.3363 20.1769 2.3363Z" fill="#1AE19D"/>
<path d="M16.3539 3.39825C16.9404 3.39825 17.4159 2.9228 17.4159 2.3363C17.4159 1.7498 16.9404 1.27435 16.3539 1.27435C15.7674 1.27435 15.292 1.7498 15.292 2.3363C15.292 2.9228 15.7674 3.39825 16.3539 3.39825Z" fill="#1AE19D"/>
<path d="M12.7433 5.09734C13.3298 5.09734 13.8053 4.62189 13.8053 4.0354C13.8053 3.4489 13.3298 2.97345 12.7433 2.97345C12.1568 2.97345 11.6814 3.4489 11.6814 4.0354C11.6814 4.62189 12.1568 5.09734 12.7433 5.09734Z" fill="#1AE19D"/>
<path d="M9.55755 7.43365C10.1441 7.43365 10.6195 6.9582 10.6195 6.3717C10.6195 5.7852 10.1441 5.30975 9.55755 5.30975C8.97106 5.30975 8.49561 5.7852 8.49561 6.3717C8.49561 6.9582 8.97106 7.43365 9.55755 7.43365Z" fill="#1AE19D"/>
<path d="M6.58404 10.1947C7.17054 10.1947 7.64599 9.71925 7.64599 9.13275C7.64599 8.54625 7.17054 8.0708 6.58404 8.0708C5.99754 8.0708 5.52209 8.54625 5.52209 9.13275C5.52209 9.71925 5.99754 10.1947 6.58404 10.1947Z" fill="#1AE19D"/>
<path d="M4.24774 13.5929C4.83424 13.5929 5.30969 13.1175 5.30969 12.531C5.30969 11.9445 4.83424 11.4691 4.24774 11.4691C3.66124 11.4691 3.18579 11.9445 3.18579 12.531C3.18579 13.1175 3.66124 13.5929 4.24774 13.5929Z" fill="#1AE19D"/>
<path d="M2.54864 17.2035C3.13514 17.2035 3.61059 16.7281 3.61059 16.1416C3.61059 15.5551 3.13514 15.0797 2.54864 15.0797C1.96214 15.0797 1.48669 15.5551 1.48669 16.1416C1.48669 16.7281 1.96214 17.2035 2.54864 17.2035Z" fill="#1AE19D"/>
<path d="M6.37164 17.6283C6.95814 17.6283 7.43359 17.1529 7.43359 16.5664C7.43359 15.9799 6.95814 15.5045 6.37164 15.5045C5.78514 15.5045 5.30969 15.9799 5.30969 16.5664C5.30969 17.1529 5.78514 17.6283 6.37164 17.6283Z" fill="#1AE19D"/>
<path d="M8.28314 14.4425C8.86964 14.4425 9.34509 13.967 9.34509 13.3806C9.34509 12.7941 8.86964 12.3186 8.28314 12.3186C7.69664 12.3186 7.22119 12.7941 7.22119 13.3806C7.22119 13.967 7.69664 14.4425 8.28314 14.4425Z" fill="#1AE19D"/>
<path d="M10.6194 11.469C11.2059 11.469 11.6814 10.9936 11.6814 10.4071C11.6814 9.8206 11.2059 9.34515 10.6194 9.34515C10.0329 9.34515 9.5575 9.8206 9.5575 10.4071C9.5575 10.9936 10.0329 11.469 10.6194 11.469Z" fill="#1AE19D"/>
<path d="M13.593 9.13275C14.1794 9.13275 14.6549 8.65729 14.6549 8.0708C14.6549 7.4843 14.1794 7.00885 13.593 7.00885C13.0065 7.00885 12.531 7.4843 12.531 8.0708C12.531 8.65729 13.0065 9.13275 13.593 9.13275Z" fill="#1AE19D"/>
<path d="M16.9911 7.22125C17.5776 7.22125 18.0531 6.7458 18.0531 6.1593C18.0531 5.5728 17.5776 5.09735 16.9911 5.09735C16.4046 5.09735 15.9292 5.5728 15.9292 6.1593C15.9292 6.7458 16.4046 7.22125 16.9911 7.22125Z" fill="#1AE19D"/>
<path d="M20.3893 6.15929C20.9758 6.15929 21.4513 5.68384 21.4513 5.09735C21.4513 4.51085 20.9758 4.0354 20.3893 4.0354C19.8028 4.0354 19.3274 4.51085 19.3274 5.09735C19.3274 5.68384 19.8028 6.15929 20.3893 6.15929Z" fill="#1AE19D"/>
<path d="M24.0001 5.94689C24.5866 5.94689 25.062 5.47144 25.062 4.88495C25.062 4.29845 24.5866 3.823 24.0001 3.823C23.4136 3.823 22.9381 4.29845 22.9381 4.88495C22.9381 5.47144 23.4136 5.94689 24.0001 5.94689Z" fill="#1AE19D"/>
<path d="M24.0001 9.76989C24.5866 9.76989 25.062 9.29444 25.062 8.70794C25.062 8.12145 24.5866 7.646 24.0001 7.646C23.4136 7.646 22.9381 8.12145 22.9381 8.70794C22.9381 9.29444 23.4136 9.76989 24.0001 9.76989Z" fill="#1AE19D"/>
<path d="M24.0001 13.5929C24.5866 13.5929 25.062 13.1175 25.062 12.531C25.062 11.9445 24.5866 11.4691 24.0001 11.4691C23.4136 11.4691 22.9381 11.9445 22.9381 12.531C22.9381 13.1175 23.4136 13.5929 24.0001 13.5929Z" fill="#1AE19D"/>
<path d="M20.6017 14.0177C21.1882 14.0177 21.6637 13.5422 21.6637 12.9557C21.6637 12.3692 21.1882 11.8938 20.6017 11.8938C20.0152 11.8938 19.5398 12.3692 19.5398 12.9557C19.5398 13.5422 20.0152 14.0177 20.6017 14.0177Z" fill="#1AE19D"/>
<path d="M17.416 15.7168C18.0024 15.7168 18.4779 15.2413 18.4779 14.6548C18.4779 14.0683 18.0024 13.5929 17.416 13.5929C16.8295 13.5929 16.354 14.0683 16.354 14.6548C16.354 15.2413 16.8295 15.7168 17.416 15.7168Z" fill="#1AE19D"/>
<path d="M14.8672 18.2655C15.4537 18.2655 15.9292 17.79 15.9292 17.2035C15.9292 16.6171 15.4537 16.1416 14.8672 16.1416C14.2807 16.1416 13.8053 16.6171 13.8053 17.2035C13.8053 17.79 14.2807 18.2655 14.8672 18.2655Z" fill="#1AE19D"/>
<path d="M10.8318 17.4159C11.4183 17.4159 11.8938 16.9405 11.8938 16.354C11.8938 15.7675 11.4183 15.2921 10.8318 15.2921C10.2453 15.2921 9.7699 15.7675 9.7699 16.354C9.7699 16.9405 10.2453 17.4159 10.8318 17.4159Z" fill="#1AE19D"/>
<path d="M13.1681 14.2301C13.7546 14.2301 14.2301 13.7546 14.2301 13.1681C14.2301 12.5817 13.7546 12.1062 13.1681 12.1062C12.5817 12.1062 12.1062 12.5817 12.1062 13.1681C12.1062 13.7546 12.5817 14.2301 13.1681 14.2301Z" fill="#1AE19D"/>
<path d="M16.3539 11.6814C16.9404 11.6814 17.4159 11.2059 17.4159 10.6194C17.4159 10.0329 16.9404 9.5575 16.3539 9.5575C15.7674 9.5575 15.292 10.0329 15.292 10.6194C15.292 11.2059 15.7674 11.6814 16.3539 11.6814Z" fill="#1AE19D"/>
<path d="M20.1769 10.1947C20.7634 10.1947 21.2389 9.71925 21.2389 9.13275C21.2389 8.54625 20.7634 8.0708 20.1769 8.0708C19.5904 8.0708 19.115 8.54625 19.115 9.13275C19.115 9.71925 19.5904 10.1947 20.1769 10.1947Z" fill="#1AE19D"/>
<path d="M22.0884 28.4601C22.6749 28.4601 23.1504 27.9847 23.1504 27.3982C23.1504 26.8117 22.6749 26.3362 22.0884 26.3362C21.5019 26.3362 21.0265 26.8117 21.0265 27.3982C21.0265 27.9847 21.5019 28.4601 22.0884 28.4601Z" fill="#1AE19D"/>
<path d="M20.3893 31.6461C20.9758 31.6461 21.4513 31.1707 21.4513 30.5842C21.4513 29.9977 20.9758 29.5222 20.3893 29.5222C19.8028 29.5222 19.3274 29.9977 19.3274 30.5842C19.3274 31.1707 19.8028 31.6461 20.3893 31.6461Z" fill="#1AE19D"/>
<path d="M17.416 34.407C18.0024 34.407 18.4779 33.9316 18.4779 33.3451C18.4779 32.7586 18.0024 32.2831 17.416 32.2831C16.8295 32.2831 16.354 32.7586 16.354 33.3451C16.354 33.9316 16.8295 34.407 17.416 34.407Z" fill="#1AE19D"/>
<path d="M13.3806 35.8939C13.967 35.8939 14.4425 35.4184 14.4425 34.8319C14.4425 34.2454 13.967 33.77 13.3806 33.77C12.7941 33.77 12.3186 34.2454 12.3186 34.8319C12.3186 35.4184 12.7941 35.8939 13.3806 35.8939Z" fill="#1AE19D"/>
<path d="M10.6194 38.6548C11.2059 38.6548 11.6814 38.1794 11.6814 37.5929C11.6814 37.0064 11.2059 36.5309 10.6194 36.5309C10.0329 36.5309 9.5575 37.0064 9.5575 37.5929C9.5575 38.1794 10.0329 38.6548 10.6194 38.6548Z" fill="#1AE19D"/>
<path d="M9.34515 42.6902C9.93165 42.6902 10.4071 42.2147 10.4071 41.6282C10.4071 41.0417 9.93165 40.5663 9.34515 40.5663C8.75865 40.5663 8.2832 41.0417 8.2832 41.6282C8.2832 42.2147 8.75865 42.6902 9.34515 42.6902Z" fill="#1AE19D"/>
<path d="M6.58404 39.7169C7.17054 39.7169 7.64599 39.2414 7.64599 38.6549C7.64599 38.0684 7.17054 37.593 6.58404 37.593C5.99754 37.593 5.52209 38.0684 5.52209 38.6549C5.52209 39.2414 5.99754 39.7169 6.58404 39.7169Z" fill="#1AE19D"/>
<path d="M8.28314 35.6814C8.86964 35.6814 9.34509 35.206 9.34509 34.6195C9.34509 34.033 8.86964 33.5576 8.28314 33.5576C7.69664 33.5576 7.22119 34.033 7.22119 34.6195C7.22119 35.206 7.69664 35.6814 8.28314 35.6814Z" fill="#1AE19D"/>
<path d="M10.8318 32.7079C11.4183 32.7079 11.8938 32.2324 11.8938 31.6459C11.8938 31.0594 11.4183 30.584 10.8318 30.584C10.2453 30.584 9.7699 31.0594 9.7699 31.6459C9.7699 32.2324 10.2453 32.7079 10.8318 32.7079Z" fill="#1AE19D"/>
<path d="M14.8672 31.6461C15.4537 31.6461 15.9292 31.1707 15.9292 30.5842C15.9292 29.9977 15.4537 29.5222 14.8672 29.5222C14.2807 29.5222 13.8053 29.9977 13.8053 30.5842C13.8053 31.1707 14.2807 31.6461 14.8672 31.6461Z" fill="#1AE19D"/>
<path d="M17.6284 28.8849C18.2149 28.8849 18.6903 28.4094 18.6903 27.8229C18.6903 27.2364 18.2149 26.761 17.6284 26.761C17.0419 26.761 16.5664 27.2364 16.5664 27.8229C16.5664 28.4094 17.0419 28.8849 17.6284 28.8849Z" fill="#1AE19D"/>
<path d="M13.1681 28.4601C13.7546 28.4601 14.2301 27.9847 14.2301 27.3982C14.2301 26.8117 13.7546 26.3362 13.1681 26.3362C12.5817 26.3362 12.1062 26.8117 12.1062 27.3982C12.1062 27.9847 12.5817 28.4601 13.1681 28.4601Z" fill="#1AE19D"/>
<path d="M9.34515 29.0973C9.93165 29.0973 10.4071 28.6218 10.4071 28.0353C10.4071 27.4488 9.93165 26.9734 9.34515 26.9734C8.75865 26.9734 8.2832 27.4488 8.2832 28.0353C8.2832 28.6218 8.75865 29.0973 9.34515 29.0973Z" fill="#1AE19D"/>
<path d="M5.30975 28.6725C5.89625 28.6725 6.3717 28.197 6.3717 27.6105C6.3717 27.024 5.89625 26.5486 5.30975 26.5486C4.72325 26.5486 4.2478 27.024 4.2478 27.6105C4.2478 28.197 4.72325 28.6725 5.30975 28.6725Z" fill="#1AE19D"/>
<path d="M1.48675 28.8849C2.07325 28.8849 2.5487 28.4094 2.5487 27.8229C2.5487 27.2364 2.07325 26.761 1.48675 26.761C0.900255 26.761 0.424805 27.2364 0.424805 27.8229C0.424805 28.4094 0.900255 28.8849 1.48675 28.8849Z" fill="#1AE19D"/>
<path d="M2.54864 32.9203C3.13514 32.9203 3.61059 32.4448 3.61059 31.8583C3.61059 31.2718 3.13514 30.7964 2.54864 30.7964C1.96214 30.7964 1.48669 31.2718 1.48669 31.8583C1.48669 32.4448 1.96214 32.9203 2.54864 32.9203Z" fill="#1AE19D"/>
<path d="M6.37164 32.2833C6.95814 32.2833 7.43359 31.8079 7.43359 31.2214C7.43359 30.6349 6.95814 30.1594 6.37164 30.1594C5.78514 30.1594 5.30969 30.6349 5.30969 31.2214C5.30969 31.8079 5.78514 32.2833 6.37164 32.2833Z" fill="#1AE19D"/>
<path d="M4.24774 36.5311C4.83424 36.5311 5.30969 36.0556 5.30969 35.4691C5.30969 34.8826 4.83424 34.4072 4.24774 34.4072C3.66124 34.4072 3.18579 34.8826 3.18579 35.4691C3.18579 36.0556 3.66124 36.5311 4.24774 36.5311Z" fill="#1AE19D"/>
<path d="M26.124 28.4601C26.7105 28.4601 27.1859 27.9847 27.1859 27.3982C27.1859 26.8117 26.7105 26.3362 26.124 26.3362C25.5375 26.3362 25.062 26.8117 25.062 27.3982C25.062 27.9847 25.5375 28.4601 26.124 28.4601Z" fill="#1AE19D"/>
<path d="M27.8229 25.0619C28.4094 25.0619 28.8849 24.5865 28.8849 24C28.8849 23.4135 28.4094 22.938 27.8229 22.938C27.2364 22.938 26.761 23.4135 26.761 24C26.761 24.5865 27.2364 25.0619 27.8229 25.0619Z" fill="#1AE19D"/>
<path d="M30.7966 21.2389C31.3831 21.2389 31.8585 20.7635 31.8585 20.177C31.8585 19.5905 31.3831 19.1151 30.7966 19.1151C30.2101 19.1151 29.7346 19.5905 29.7346 20.177C29.7346 20.7635 30.2101 21.2389 30.7966 21.2389Z" fill="#1AE19D"/>
<path d="M33.5576 18.2655C34.144 18.2655 34.6195 17.79 34.6195 17.2035C34.6195 16.6171 34.144 16.1416 33.5576 16.1416C32.9711 16.1416 32.4956 16.6171 32.4956 17.2035C32.4956 17.79 32.9711 18.2655 33.5576 18.2655Z" fill="#1AE19D"/>
<path d="M37.3804 17.4159C37.9669 17.4159 38.4424 16.9405 38.4424 16.354C38.4424 15.7675 37.9669 15.2921 37.3804 15.2921C36.7939 15.2921 36.3185 15.7675 36.3185 16.354C36.3185 16.9405 36.7939 17.4159 37.3804 17.4159Z" fill="#1AE19D"/>
<path d="M40.1417 14.4425C40.7282 14.4425 41.2036 13.967 41.2036 13.3806C41.2036 12.7941 40.7282 12.3186 40.1417 12.3186C39.5552 12.3186 39.0797 12.7941 39.0797 13.3806C39.0797 13.967 39.5552 14.4425 40.1417 14.4425Z" fill="#1AE19D"/>
<path d="M41.8406 17.8407C42.4271 17.8407 42.9026 17.3652 42.9026 16.7787C42.9026 16.1922 42.4271 15.7168 41.8406 15.7168C41.2541 15.7168 40.7787 16.1922 40.7787 16.7787C40.7787 17.3652 41.2541 17.8407 41.8406 17.8407Z" fill="#1AE19D"/>
<path d="M38.8672 21.0265C39.4537 21.0265 39.9292 20.5511 39.9292 19.9646C39.9292 19.3781 39.4537 18.9026 38.8672 18.9026C38.2808 18.9026 37.8053 19.3781 37.8053 19.9646C37.8053 20.5511 38.2808 21.0265 38.8672 21.0265Z" fill="#1AE19D"/>
<path d="M42.9026 21.2389C43.4891 21.2389 43.9646 20.7635 43.9646 20.177C43.9646 19.5905 43.4891 19.1151 42.9026 19.1151C42.3161 19.1151 41.8407 19.5905 41.8407 20.177C41.8407 20.7635 42.3161 21.2389 42.9026 21.2389Z" fill="#1AE19D"/>
<path d="M46.7256 21.0265C47.3121 21.0265 47.7876 20.5511 47.7876 19.9646C47.7876 19.3781 47.3121 18.9026 46.7256 18.9026C46.1391 18.9026 45.6637 19.3781 45.6637 19.9646C45.6637 20.5511 46.1391 21.0265 46.7256 21.0265Z" fill="#1AE19D"/>
<path d="M45.6636 17.2035C46.2501 17.2035 46.7256 16.7281 46.7256 16.1416C46.7256 15.5551 46.2501 15.0797 45.6636 15.0797C45.0771 15.0797 44.6017 15.5551 44.6017 16.1416C44.6017 16.7281 45.0771 17.2035 45.6636 17.2035Z" fill="#1AE19D"/>
<path d="M35.0444 21.4513C35.6309 21.4513 36.1063 20.9759 36.1063 20.3894C36.1063 19.8029 35.6309 19.3275 35.0444 19.3275C34.4579 19.3275 33.9824 19.8029 33.9824 20.3894C33.9824 20.9759 34.4579 21.4513 35.0444 21.4513Z" fill="#1AE19D"/>
<path d="M43.9647 13.5929C44.5512 13.5929 45.0266 13.1175 45.0266 12.531C45.0266 11.9445 44.5512 11.4691 43.9647 11.4691C43.3782 11.4691 42.9027 11.9445 42.9027 12.531C42.9027 13.1175 43.3782 13.5929 43.9647 13.5929Z" fill="#1AE19D"/>
<path d="M31.6459 25.0619C32.2324 25.0619 32.7079 24.5865 32.7079 24C32.7079 23.4135 32.2324 22.938 31.6459 22.938C31.0594 22.938 30.584 23.4135 30.584 24C30.584 24.5865 31.0594 25.0619 31.6459 25.0619Z" fill="#1AE19D"/>
<path d="M30.7966 28.8849C31.3831 28.8849 31.8585 28.4094 31.8585 27.8229C31.8585 27.2364 31.3831 26.761 30.7966 26.761C30.2101 26.761 29.7346 27.2364 29.7346 27.8229C29.7346 28.4094 30.2101 28.8849 30.7966 28.8849Z" fill="#1AE19D"/>
<path d="M28.0353 31.6461C28.6218 31.6461 29.0973 31.1707 29.0973 30.5842C29.0973 29.9977 28.6218 29.5222 28.0353 29.5222C27.4488 29.5222 26.9734 29.9977 26.9734 30.5842C26.9734 31.1707 27.4488 31.6461 28.0353 31.6461Z" fill="#1AE19D"/>
<path d="M24.0001 32.7079C24.5866 32.7079 25.062 32.2324 25.062 31.6459C25.062 31.0594 24.5866 30.584 24.0001 30.584C23.4136 30.584 22.9381 31.0594 22.9381 31.6459C22.9381 32.2324 23.4136 32.7079 24.0001 32.7079Z" fill="#1AE19D"/>
<path d="M24.0001 36.5311C24.5866 36.5311 25.062 36.0556 25.062 35.4691C25.062 34.8826 24.5866 34.4072 24.0001 34.4072C23.4136 34.4072 22.9381 34.8826 22.9381 35.4691C22.9381 36.0556 23.4136 36.5311 24.0001 36.5311Z" fill="#1AE19D"/>
<path d="M20.6017 35.8939C21.1882 35.8939 21.6637 35.4184 21.6637 34.8319C21.6637 34.2454 21.1882 33.77 20.6017 33.77C20.0152 33.77 19.5398 34.2454 19.5398 34.8319C19.5398 35.4184 20.0152 35.8939 20.6017 35.8939Z" fill="#1AE19D"/>
<path d="M20.3893 39.9293C20.9758 39.9293 21.4513 39.4538 21.4513 38.8673C21.4513 38.2808 20.9758 37.8054 20.3893 37.8054C19.8028 37.8054 19.3274 38.2808 19.3274 38.8673C19.3274 39.4538 19.8028 39.9293 20.3893 39.9293Z" fill="#1AE19D"/>
<path d="M20.3893 43.7522C20.9758 43.7522 21.4513 43.2767 21.4513 42.6902C21.4513 42.1037 20.9758 41.6283 20.3893 41.6283C19.8028 41.6283 19.3274 42.1037 19.3274 42.6902C19.3274 43.2767 19.8028 43.7522 20.3893 43.7522Z" fill="#1AE19D"/>
<path d="M20.1769 47.5751C20.7634 47.5751 21.2389 47.0997 21.2389 46.5132C21.2389 45.9267 20.7634 45.4512 20.1769 45.4512C19.5904 45.4512 19.115 45.9267 19.115 46.5132C19.115 47.0997 19.5904 47.5751 20.1769 47.5751Z" fill="#1AE19D"/>
<path d="M24.0001 47.9999C24.5866 47.9999 25.062 47.5245 25.062 46.938C25.062 46.3515 24.5866 45.876 24.0001 45.876C23.4136 45.876 22.9381 46.3515 22.9381 46.938C22.9381 47.5245 23.4136 47.9999 24.0001 47.9999Z" fill="#1AE19D"/>
<path d="M24.0001 44.3894C24.5866 44.3894 25.062 43.9139 25.062 43.3275C25.062 42.741 24.5866 42.2655 24.0001 42.2655C23.4136 42.2655 22.9381 42.741 22.9381 43.3275C22.9381 43.9139 23.4136 44.3894 24.0001 44.3894Z" fill="#1AE19D"/>
<path d="M24.0001 40.354C24.5866 40.354 25.062 39.8785 25.062 39.292C25.062 38.7056 24.5866 38.2301 24.0001 38.2301C23.4136 38.2301 22.9381 38.7056 22.9381 39.292C22.9381 39.8785 23.4136 40.354 24.0001 40.354Z" fill="#1AE19D"/>
<path d="M27.6105 35.8939C28.197 35.8939 28.6725 35.4184 28.6725 34.8319C28.6725 34.2454 28.197 33.77 27.6105 33.77C27.024 33.77 26.5486 34.2454 26.5486 34.8319C26.5486 35.4184 27.024 35.8939 27.6105 35.8939Z" fill="#1AE19D"/>
<path d="M28.2477 39.7169C28.8342 39.7169 29.3097 39.2414 29.3097 38.6549C29.3097 38.0684 28.8342 37.593 28.2477 37.593C27.6612 37.593 27.1858 38.0684 27.1858 38.6549C27.1858 39.2414 27.6612 39.7169 28.2477 39.7169Z" fill="#1AE19D"/>
<path d="M27.8229 43.7522C28.4094 43.7522 28.8849 43.2767 28.8849 42.6902C28.8849 42.1037 28.4094 41.6283 27.8229 41.6283C27.2364 41.6283 26.761 42.1037 26.761 42.6902C26.761 43.2767 27.2364 43.7522 27.8229 43.7522Z" fill="#1AE19D"/>
<path d="M28.0353 47.5751C28.6218 47.5751 29.0973 47.0997 29.0973 46.5132C29.0973 45.9267 28.6218 45.4512 28.0353 45.4512C27.4488 45.4512 26.9734 45.9267 26.9734 46.5132C26.9734 47.0997 27.4488 47.5751 28.0353 47.5751Z" fill="#1AE19D"/>
<path d="M31.8583 46.5134C32.4448 46.5134 32.9203 46.038 32.9203 45.4515C32.9203 44.865 32.4448 44.3895 31.8583 44.3895C31.2718 44.3895 30.7964 44.865 30.7964 45.4515C30.7964 46.038 31.2718 46.5134 31.8583 46.5134Z" fill="#1AE19D"/>
<path d="M31.4335 42.6902C32.02 42.6902 32.4955 42.2147 32.4955 41.6282C32.4955 41.0417 32.02 40.5663 31.4335 40.5663C30.847 40.5663 30.3716 41.0417 30.3716 41.6282C30.3716 42.2147 30.847 42.6902 31.4335 42.6902Z" fill="#1AE19D"/>
<path d="M31.8583 38.23C32.4448 38.23 32.9203 37.7546 32.9203 37.1681C32.9203 36.5816 32.4448 36.1061 31.8583 36.1061C31.2718 36.1061 30.7964 36.5816 30.7964 37.1681C30.7964 37.7546 31.2718 38.23 31.8583 38.23Z" fill="#1AE19D"/>
<path d="M30.7966 34.407C31.3831 34.407 31.8585 33.9316 31.8585 33.3451C31.8585 32.7586 31.3831 32.2831 30.7966 32.2831C30.2101 32.2831 29.7346 32.7586 29.7346 33.3451C29.7346 33.9316 30.2101 34.407 30.7966 34.407Z" fill="#1AE19D"/>
<path d="M33.3452 31.8585C33.9316 31.8585 34.4071 31.3831 34.4071 30.7966C34.4071 30.2101 33.9316 29.7346 33.3452 29.7346C32.7587 29.7346 32.2832 30.2101 32.2832 30.7966C32.2832 31.3831 32.7587 31.8585 33.3452 31.8585Z" fill="#1AE19D"/>
<path d="M35.0444 28.6725C35.6309 28.6725 36.1063 28.197 36.1063 27.6105C36.1063 27.024 35.6309 26.5486 35.0444 26.5486C34.4579 26.5486 33.9824 27.024 33.9824 27.6105C33.9824 28.197 34.4579 28.6725 35.0444 28.6725Z" fill="#1AE19D"/>
<path d="M39.0796 28.8849C39.6661 28.8849 40.1416 28.4094 40.1416 27.8229C40.1416 27.2364 39.6661 26.761 39.0796 26.761C38.4931 26.761 38.0177 27.2364 38.0177 27.8229C38.0177 28.4094 38.4931 28.8849 39.0796 28.8849Z" fill="#1AE19D"/>
<path d="M42.9026 28.6725C43.4891 28.6725 43.9646 28.197 43.9646 27.6105C43.9646 27.024 43.4891 26.5486 42.9026 26.5486C42.3161 26.5486 41.8407 27.024 41.8407 27.6105C41.8407 28.197 42.3161 28.6725 42.9026 28.6725Z" fill="#1AE19D"/>
<path d="M46.938 28.8849C47.5245 28.8849 48 28.4094 48 27.8229C48 27.2364 47.5245 26.761 46.938 26.761C46.3515 26.761 45.8761 27.2364 45.8761 27.8229C45.8761 28.4094 46.3515 28.8849 46.938 28.8849Z" fill="#1AE19D"/>
<path d="M45.6636 32.9203C46.2501 32.9203 46.7256 32.4448 46.7256 31.8583C46.7256 31.2718 46.2501 30.7964 45.6636 30.7964C45.0771 30.7964 44.6017 31.2718 44.6017 31.8583C44.6017 32.4448 45.0771 32.9203 45.6636 32.9203Z" fill="#1AE19D"/>
<path d="M43.9647 36.5311C44.5512 36.5311 45.0266 36.0556 45.0266 35.4691C45.0266 34.8826 44.5512 34.4072 43.9647 34.4072C43.3782 34.4072 42.9027 34.8826 42.9027 35.4691C42.9027 36.0556 43.3782 36.5311 43.9647 36.5311Z" fill="#1AE19D"/>
<path d="M41.8406 39.7169C42.4271 39.7169 42.9026 39.2414 42.9026 38.6549C42.9026 38.0684 42.4271 37.593 41.8406 37.593C41.2541 37.593 40.7787 38.0684 40.7787 38.6549C40.7787 39.2414 41.2541 39.7169 41.8406 39.7169Z" fill="#1AE19D"/>
<path d="M38.8672 42.6902C39.4537 42.6902 39.9292 42.2147 39.9292 41.6282C39.9292 41.0417 39.4537 40.5663 38.8672 40.5663C38.2808 40.5663 37.8053 41.0417 37.8053 41.6282C37.8053 42.2147 38.2808 42.6902 38.8672 42.6902Z" fill="#1AE19D"/>
<path d="M35.6816 44.8142C36.2681 44.8142 36.7435 44.3388 36.7435 43.7523C36.7435 43.1658 36.2681 42.6903 35.6816 42.6903C35.0951 42.6903 34.6196 43.1658 34.6196 43.7523C34.6196 44.3388 35.0951 44.8142 35.6816 44.8142Z" fill="#1AE19D"/>
<path d="M34.832 40.9912C35.4185 40.9912 35.8939 40.5158 35.8939 39.9293C35.8939 39.3428 35.4185 38.8673 34.832 38.8673C34.2455 38.8673 33.77 39.3428 33.77 39.9293C33.77 40.5158 34.2455 40.9912 34.832 40.9912Z" fill="#1AE19D"/>
<path d="M37.8052 38.6548C38.3917 38.6548 38.8672 38.1794 38.8672 37.5929C38.8672 37.0064 38.3917 36.5309 37.8052 36.5309C37.2187 36.5309 36.7433 37.0064 36.7433 37.5929C36.7433 38.1794 37.2187 38.6548 37.8052 38.6548Z" fill="#1AE19D"/>
<path d="M40.1417 35.469C40.7282 35.469 41.2036 34.9936 41.2036 34.4071C41.2036 33.8206 40.7282 33.3452 40.1417 33.3452C39.5552 33.3452 39.0797 33.8206 39.0797 34.4071C39.0797 34.9936 39.5552 35.469 40.1417 35.469Z" fill="#1AE19D"/>
<path d="M41.8406 32.2833C42.4271 32.2833 42.9026 31.8079 42.9026 31.2214C42.9026 30.6349 42.4271 30.1594 41.8406 30.1594C41.2541 30.1594 40.7787 30.6349 40.7787 31.2214C40.7787 31.8079 41.2541 32.2833 41.8406 32.2833Z" fill="#1AE19D"/>
<path d="M37.3804 32.7079C37.9669 32.7079 38.4424 32.2324 38.4424 31.6459C38.4424 31.0594 37.9669 30.584 37.3804 30.584C36.7939 30.584 36.3185 31.0594 36.3185 31.6459C36.3185 32.2324 36.7939 32.7079 37.3804 32.7079Z" fill="#1AE19D"/>
<path d="M35.0444 35.8939C35.6309 35.8939 36.1063 35.4184 36.1063 34.8319C36.1063 34.2454 35.6309 33.77 35.0444 33.77C34.4579 33.77 33.9824 34.2454 33.9824 34.8319C33.9824 35.4184 34.4579 35.8939 35.0444 35.8939Z" fill="#1AE19D"/>
<path d="M16.5663 38.4424C17.1528 38.4424 17.6283 37.967 17.6283 37.3805C17.6283 36.794 17.1528 36.3185 16.5663 36.3185C15.9798 36.3185 15.5044 36.794 15.5044 37.3805C15.5044 37.967 15.9798 38.4424 16.5663 38.4424Z" fill="#1AE19D"/>
<path d="M13.593 40.9912C14.1794 40.9912 14.6549 40.5158 14.6549 39.9293C14.6549 39.3428 14.1794 38.8673 13.593 38.8673C13.0065 38.8673 12.531 39.3428 12.531 39.9293C12.531 40.5158 13.0065 40.9912 13.593 40.9912Z" fill="#1AE19D"/>
<path d="M16.9911 42.6902C17.5776 42.6902 18.0531 42.2147 18.0531 41.6282C18.0531 41.0417 17.5776 40.5663 16.9911 40.5663C16.4046 40.5663 15.9292 41.0417 15.9292 41.6282C15.9292 42.2147 16.4046 42.6902 16.9911 42.6902Z" fill="#1AE19D"/>
<path d="M16.3539 46.5134C16.9404 46.5134 17.4159 46.038 17.4159 45.4515C17.4159 44.865 16.9404 44.3895 16.3539 44.3895C15.7674 44.3895 15.292 44.865 15.292 45.4515C15.292 46.038 15.7674 46.5134 16.3539 46.5134Z" fill="#1AE19D"/>
<path d="M12.7433 44.8142C13.3298 44.8142 13.8053 44.3388 13.8053 43.7523C13.8053 43.1658 13.3298 42.6903 12.7433 42.6903C12.1568 42.6903 11.6814 43.1658 11.6814 43.7523C11.6814 44.3388 12.1568 44.8142 12.7433 44.8142Z" fill="#1AE19D"/>
<path d="M35.4692 25.0619C36.0557 25.0619 36.5311 24.5865 36.5311 24C36.5311 23.4135 36.0557 22.938 35.4692 22.938C34.8827 22.938 34.4072 23.4135 34.4072 24C34.4072 24.5865 34.8827 25.0619 35.4692 25.0619Z" fill="#1AE19D"/>
<path d="M39.292 25.0619C39.8785 25.0619 40.354 24.5865 40.354 24C40.354 23.4135 39.8785 22.938 39.292 22.938C38.7056 22.938 38.2301 23.4135 38.2301 24C38.2301 24.5865 38.7056 25.0619 39.292 25.0619Z" fill="#1AE19D"/>
<path d="M43.115 25.0619C43.7015 25.0619 44.177 24.5865 44.177 24C44.177 23.4135 43.7015 22.938 43.115 22.938C42.5285 22.938 42.0531 23.4135 42.0531 24C42.0531 24.5865 42.5285 25.0619 43.115 25.0619Z" fill="#1AE19D"/>
<path d="M46.938 25.0619C47.5245 25.0619 48 24.5865 48 24C48 23.4135 47.5245 22.938 46.938 22.938C46.3515 22.938 45.8761 23.4135 45.8761 24C45.8761 24.5865 46.3515 25.0619 46.938 25.0619Z" fill="#1AE19D"/>
<path d="M20.1769 25.0619C20.7634 25.0619 21.2389 24.5865 21.2389 24C21.2389 23.4135 20.7634 22.938 20.1769 22.938C19.5904 22.938 19.115 23.4135 19.115 24C19.115 24.5865 19.5904 25.0619 20.1769 25.0619Z" fill="#1AE19D"/>
<path d="M16.3539 25.0619C16.9404 25.0619 17.4159 24.5865 17.4159 24C17.4159 23.4135 16.9404 22.938 16.3539 22.938C15.7674 22.938 15.292 23.4135 15.292 24C15.292 24.5865 15.7674 25.0619 16.3539 25.0619Z" fill="#1AE19D"/>
<path d="M17.416 21.2389C18.0024 21.2389 18.4779 20.7635 18.4779 20.177C18.4779 19.5905 18.0024 19.1151 17.416 19.1151C16.8295 19.1151 16.354 19.5905 16.354 20.177C16.354 20.7635 16.8295 21.2389 17.416 21.2389Z" fill="#1AE19D"/>
<path d="M13.1681 21.4513C13.7546 21.4513 14.2301 20.9759 14.2301 20.3894C14.2301 19.8029 13.7546 19.3275 13.1681 19.3275C12.5817 19.3275 12.1062 19.8029 12.1062 20.3894C12.1062 20.9759 12.5817 21.4513 13.1681 21.4513Z" fill="#1AE19D"/>
<path d="M9.34515 21.2389C9.93165 21.2389 10.4071 20.7635 10.4071 20.177C10.4071 19.5905 9.93165 19.1151 9.34515 19.1151C8.75865 19.1151 8.2832 19.5905 8.2832 20.177C8.2832 20.7635 8.75865 21.2389 9.34515 21.2389Z" fill="#1AE19D"/>
<path d="M5.30975 21.2389C5.89625 21.2389 6.3717 20.7635 6.3717 20.177C6.3717 19.5905 5.89625 19.1151 5.30975 19.1151C4.72325 19.1151 4.2478 19.5905 4.2478 20.177C4.2478 20.7635 4.72325 21.2389 5.30975 21.2389Z" fill="#1AE19D"/>
<path d="M1.48675 21.0265C2.07325 21.0265 2.5487 20.5511 2.5487 19.9646C2.5487 19.3781 2.07325 18.9026 1.48675 18.9026C0.900255 18.9026 0.424805 19.3781 0.424805 19.9646C0.424805 20.5511 0.900255 21.0265 1.48675 21.0265Z" fill="#1AE19D"/>
<path d="M12.5309 25.0619C13.1174 25.0619 13.5929 24.5865 13.5929 24C13.5929 23.4135 13.1174 22.938 12.5309 22.938C11.9444 22.938 11.469 23.4135 11.469 24C11.469 24.5865 11.9444 25.0619 12.5309 25.0619Z" fill="#1AE19D"/>
<path d="M8.70794 25.0619C9.29444 25.0619 9.76989 24.5865 9.76989 24C9.76989 23.4135 9.29444 22.938 8.70794 22.938C8.12145 22.938 7.646 23.4135 7.646 24C7.646 24.5865 8.12145 25.0619 8.70794 25.0619Z" fill="#1AE19D"/>
<path d="M4.88495 25.0619C5.47144 25.0619 5.94689 24.5865 5.94689 24C5.94689 23.4135 5.47144 22.938 4.88495 22.938C4.29845 22.938 3.823 23.4135 3.823 24C3.823 24.5865 4.29845 25.0619 4.88495 25.0619Z" fill="#1AE19D"/>
<path d="M1.06195 25.0619C1.64844 25.0619 2.12389 24.5865 2.12389 24C2.12389 23.4135 1.64844 22.938 1.06195 22.938C0.47545 22.938 0 23.4135 0 24C0 24.5865 0.47545 25.0619 1.06195 25.0619Z" fill="#1AE19D"/>
<path d="M24.0001 25.0619C24.5866 25.0619 25.062 24.5865 25.062 24C25.062 23.4135 24.5866 22.938 24.0001 22.938C23.4136 22.938 22.9381 23.4135 22.9381 24C22.9381 24.5865 23.4136 25.0619 24.0001 25.0619Z" fill="#1AE19D"/>
</g>
<defs>
<clipPath id="clip0_35_1464">
<rect width="48" height="48" fill="white"/>
</clipPath>
</defs>
</svg>
